<svg xmlns="http://www.w3.org/2000/svg" version="1.1" xmlns:xlink="http://www.w3.org/1999/xlink" width="100px" height="100px"><svg version="1.0" xmlns="http://www.w3.org/2000/svg" width="100px" height="100px" viewBox="0 0 1024.000000 1024.000000" preserveAspectRatio="xMidYMid meet">

    <g transform="translate(0.000000,1024.000000) scale(0.100000,-0.100000)" fill="#7a529b" stroke="none">
        <path d="M3350 8599 c-278 -22 -492 -115 -675 -294 -176 -173 -265 -358 -300
-628 -13 -93 -15 -351 -15 -1586 0 -868 4 -1532 10 -1612 5 -75 19 -177 31
-225 21 -90 75 -220 116 -284 13 -19 29 -44 36 -54 37 -59 175 -195 245 -241
136 -91 256 -140 423 -172 89 -17 201 -18 1929 -18 l1835 0 107 27 c205 52
351 140 506 304 134 141 185 239 253 489 12 41 14 340 14 1735 0 1600 -1 1689
-18 1765 -31 133 -87 267 -143 342 -13 17 -24 36 -24 40 0 19 -189 193 -257
236 -186 119 -313 160 -542 177 -159 11 -3385 11 -3531 -1z m1870 -704 c58
-30 64 -46 71 -193 3 -76 11 -147 17 -159 7 -13 55 -42 117 -73 222 -107 354
-296 355 -507 0 -51 -3 -64 -19 -73 -24 -12 -300 -13 -319 -1 -8 5 -20 39 -28
77 -21 97 -49 135 -131 176 -63 31 -74 33 -168 33 -117 -1 -171 -21 -231 -87
-54 -60 -68 -100 -68 -198 -1 -105 22 -158 97 -226 61 -54 111 -81 312 -163
334 -137 459 -234 551 -426 44 -91 64 -186 64 -307 0 -327 -165 -566 -452
-653 -48 -14 -91 -31 -94 -37 -4 -7 -7 -144 -5 -306 1 -193 -2 -306 -9 -328
-18 -55 -62 -78 -145 -78 -74 0 -114 15 -150 54 -19 21 -20 40 -25 343 l-5
322 -95 32 c-123 43 -190 83 -271 163 -107 106 -169 243 -169 374 0 51 2 57
30 71 40 21 312 22 329 2 6 -8 15 -37 21 -65 18 -96 64 -160 145 -200 139 -68
325 -47 424 49 19 18 46 58 60 88 22 48 26 69 26 151 0 84 -3 102 -28 152 -46
95 -124 145 -377 243 -253 98 -376 174 -471 287 -105 126 -139 236 -139 449 0
130 3 155 26 225 36 112 74 172 158 251 72 69 138 108 249 148 69 25 77 43 91
204 12 141 18 161 60 183 53 29 143 30 196 3z m-1465 -210 c87 -23 152 -62
225 -135 168 -167 204 -384 100 -589 -120 -238 -411 -332 -643 -208 -240 128
-336 408 -222 653 60 131 203 255 327 284 55 13 151 11 213 -5z m2937 -4 c172
-47 318 -199 357 -371 36 -157 -13 -342 -122 -457 -151 -160 -364 -201 -555
-107 -189 92 -304 310 -273 514 17 115 73 221 161 303 76 72 122 100 203 122
73 19 151 18 229 -4z m-2777 -1150 c215 -56 353 -183 384 -355 7 -39 11 -337
11 -879 0 -764 -1 -822 -17 -856 -24 -47 -72 -78 -136 -86 -29 -3 -298 -5
-599 -3 -536 3 -547 3 -575 24 -44 33 -71 80 -78 137 -3 29 -5 374 -3 767 3
700 4 717 25 793 28 98 80 197 138 264 86 98 238 180 387 209 108 20 358 12
463 -15z m2848 14 c280 -49 479 -217 541 -457 12 -47 15 -190 17 -836 2 -752
2 -781 -17 -812 -27 -47 -61 -68 -126 -80 -35 -7 -247 -10 -575 -8 -490 3
-520 4 -546 22 -68 46 -66 27 -76 991 -7 706 -7 710 -30 770 -12 33 -25 74
-28 90 -10 65 56 159 156 219 66 41 216 93 299 105 95 14 293 12 385 -4z"></path>
    </g>
</svg><style>@media (prefers-color-scheme: light) { :root { filter: none; } }
@media (prefers-color-scheme: dark) { :root { filter: none; } }
</style></svg>