<svg xmlns="http://www.w3.org/2000/svg">
    <symbol id="email" viewBox="0 -960 960 960" fill="currentColor">
        <path d="M160-160q-33 0-56.5-23.5T80-240v-480q0-33 23.5-56.5T160-800h640q33 0 56.5 23.5T880-720v480q0 33-23.5 56.5T800-160H160Zm320-280L160-640v400h640v-400L480-440Zm0-80 320-200H160l320 200ZM160-640v-80 480-400Z"/>
    </symbol>

    <symbol id="lock" viewBox="0 0 24 24" fill="currentColor">
        <path d="M12 17a1.5 1.5 0 1 0 0-3 1.5 1.5 0 0 0 0 3z"/>
        <path d="M17 8V6a5 5 0 0 0-10 0v2H5v14h14V8h-2zm-8-2a3 3 0 0 1 6 0v2H9V6z"/>
    </symbol>

    <symbol id="eye" viewBox="0 0 24 24" fill="currentColor">
        <path d="M12 4.5C7 4.5 2.73 8.11 1 12c1.73 3.89 6 7.5 11 7.5s9.27-3.61 11-7.5c-1.73-3.89-6-7.5-11-7.5zm0 13a5.5 5.5 0 1 1 0-11 5.5 5.5 0 0 1 0 11z"/>
        <path d="M12 9.5a2.5 2.5 0 1 0 0 5 2.5 2.5 0 0 0 0-5z"/>
    </symbol>

    <symbol id="eye-off" viewBox="0 0 24 24" fill="currentColor">
        <path d="M3 3l18 18M10.584 10.586A2 2 0 0 0 12 14a2 2 0 0 0 1.414-3.414M7.05 7.05A9.956 9.956 0 0 0 2 12c1.732 3.865 5.43 7 10 7a9.956 9.956 0 0 0 4.95-1.318M12 5c3.276 0 6.245 1.765 8 4.5a9.948 9.948 0 0 1-1.651 2.318"/>
    </symbol>

    <symbol id="plus" viewBox="0 0 24 24" fill="currentColor">
        <path d="M12 5v14m7-7H5" stroke="currentColor" strokeWidth="2" strokeLinecap="round" strokeLinejoin="round"/>
    </symbol>

    <symbol id="user-circle" viewBox="0 0 24 24" fill="currentColor">
        <path d="M12 12c2.21 0 4-1.79 4-4s-1.79-4-4-4-4 1.79-4 4 1.79 4 4 4zm0 2c-2.67 0-8 1.34-8 4v2h16v-2c0-2.66-5.33-4-8-4z"/>
    </symbol>

    <symbol id="edit" viewBox="0 -960 960 960" fill="#fff">
        <path d="M200-200h57l391-391-57-57-391 391v57Zm-80 80v-170l528-527q12-11 26.5-17t30.5-6q16 0 31 6t26 18l55 56q12 11 17.5 26t5.5 30q0 16-5.5 30.5T817-647L290-120H120Zm640-584-56-56 56 56Zm-141 85-28-29 57 57-29-28Z"/>
    </symbol>

    <symbol id="close" viewBox="0 -960 960 960" fill="#fff">
        <path d="m256-200-56-56 224-224-224-224 56-56 224 224 224-224 56 56-224 224 224 224-56 56-224-224-224 224Z"/>
    </symbol>

    <symbol id="amedias" viewBox="0 0 100 100">
        <svg version="1.0"
            xmlns="http://www.w3.org/2000/svg" width="100" height="100" viewBox="0 0 1024 1024">
            <path d="M335 164.1c-27.8 2.2-49.2 11.5-67.5 29.4-17.6 17.3-26.5 35.8-30 62.8-1.3 9.3-1.5 35.1-1.5 158.6 0 86.8.4 153.2 1 161.2.5 7.5 1.9 17.7 3.1 22.5 2.1 9 7.5 22 11.6 28.4 1.3 1.9 2.9 4.4 3.6 5.4 3.7 5.9 17.5 19.5 24.5 24.1 13.6 9.1 25.6 14 42.3 17.2 8.9 1.7 20.1 1.8 192.9 1.8h183.5l10.7-2.7c20.5-5.2 35.1-14 50.6-30.4 13.4-14.1 18.5-23.9 25.3-48.9 1.2-4.1 1.4-34 1.4-173.5 0-160-.1-168.9-1.8-176.5-3.1-13.3-8.7-26.7-14.3-34.2-1.3-1.7-2.4-3.6-2.4-4 0-1.9-18.9-19.3-25.7-23.6-18.6-11.9-31.3-16-54.2-17.7-15.9-1.1-338.5-1.1-353.1.1zm187 70.4c5.8 3 6.4 4.6 7.1 19.3.3 7.6 1.1 14.7 1.7 15.9.7 1.3 5.5 4.2 11.7 7.3 22.2 10.7 35.4 29.6 35.5 50.7 0 5.1-.3 6.4-1.9 7.3-2.4 1.2-30 1.3-31.9.1-.8-.5-2-3.9-2.8-7.7-2.1-9.7-4.9-13.5-13.1-17.6-6.3-3.1-7.4-3.3-16.8-3.3-11.7.1-17.1 2.1-23.1 8.7-5.4 6-6.8 10-6.8 19.8-.1 10.5 2.2 15.8 9.7 22.6 6.1 5.4 11.1 8.1 31.2 16.3 33.4 13.7 45.9 23.4 55.1 42.6 4.4 9.1 6.4 18.6 6.4 30.7 0 32.7-16.5 56.6-45.2 65.3-4.8 1.4-9.1 3.1-9.4 3.7-.4.7-.7 14.4-.5 30.6.1 19.3-.2 30.6-.9 32.8-1.8 5.5-6.2 7.8-14.5 7.8-7.4 0-11.4-1.5-15-5.4-1.9-2.1-2-4-2.5-34.3l-.5-32.2-9.5-3.2c-12.3-4.3-19-8.3-27.1-16.3-10.7-10.6-16.9-24.3-16.9-37.4 0-5.1.2-5.7 3-7.1 4-2.1 31.2-2.2 32.9-.2.6.8 1.5 3.7 2.1 6.5 1.8 9.6 6.4 16 14.5 20 13.9 6.8 32.5 4.7 42.4-4.9 1.9-1.8 4.6-5.8 6-8.8 2.2-4.8 2.6-6.9 2.6-15.1 0-8.4-.3-10.2-2.8-15.2-4.6-9.5-12.4-14.5-37.7-24.3-25.3-9.8-37.6-17.4-47.1-28.7-10.5-12.6-13.9-23.6-13.9-44.9 0-13 .3-15.5 2.6-22.5 3.6-11.2 7.4-17.2 15.8-25.1 7.2-6.9 13.8-10.8 24.9-14.8 6.9-2.5 7.7-4.3 9.1-20.4 1.2-14.1 1.8-16.1 6-18.3 5.3-2.9 14.3-3 19.6-.3zm-146.5 21c8.7 2.3 15.2 6.2 22.5 13.5 16.8 16.7 20.4 38.4 10 58.9-12 23.8-41.1 33.2-64.3 20.8-24-12.8-33.6-40.8-22.2-65.3 6-13.1 20.3-25.5 32.7-28.4 5.5-1.3 15.1-1.1 21.3.5zm293.7.4c17.2 4.7 31.8 19.9 35.7 37.1 3.6 15.7-1.3 34.2-12.2 45.7-15.1 16-36.4 20.1-55.5 10.7-18.9-9.2-30.4-31-27.3-51.4 1.7-11.5 7.3-22.1 16.1-30.3 7.6-7.2 12.2-10 20.3-12.2 7.3-1.9 15.1-1.8 22.9.4zm-277.7 115c21.5 5.6 35.3 18.3 38.4 35.5.7 3.9 1.1 33.7 1.1 87.9 0 76.4-.1 82.2-1.7 85.6-2.4 4.7-7.2 7.8-13.6 8.6-2.9.3-29.8.5-59.9.3-53.6-.3-54.7-.3-57.5-2.4-4.4-3.3-7.1-8-7.8-13.7-.3-2.9-.5-37.4-.3-76.7.3-70 .4-71.7 2.5-79.3 2.8-9.8 8-19.7 13.8-26.4 8.6-9.8 23.8-18 38.7-20.9 10.8-2 35.8-1.2 46.3 1.5zm284.8-1.4c28 4.9 47.9 21.7 54.1 45.7 1.2 4.7 1.5 19 1.7 83.6.2 75.2.2 78.1-1.7 81.2-2.7 4.7-6.1 6.8-12.6 8-3.5.7-24.7 1-57.5.8-49-.3-52-.4-54.6-2.2-6.8-4.6-6.6-2.7-7.6-99.1-.7-70.6-.7-71-3-77-1.2-3.3-2.5-7.4-2.8-9-1-6.5 5.6-15.9 15.6-21.9 6.6-4.1 21.6-9.3 29.9-10.5 9.5-1.4 29.3-1.2 38.5.4z" fill="#7a529b"/>
        </svg>
        <style>@media (prefers-color-scheme:light){::rootfilter:none}}@media (prefers-color-scheme:dark){::rootfilter:none}}</style>
    </symbol>
</svg>
