<svg xmlns="http://www.w3.org/2000/svg" style="display: none;">
    <symbol id="email" viewBox="0 -960 960 960" fill="currentColor">
        <path d="M160-160q-33 0-56.5-23.5T80-240v-480q0-33 23.5-56.5T160-800h640q33 0 56.5 23.5T880-720v480q0 33-23.5 56.5T800-160H160Zm320-280L160-640v400h640v-400L480-440Zm0-80 320-200H160l320 200ZM160-640v-80 480-400Z"/>
    </symbol>
    <symbol id="lock" viewBox="0 0 24 24" fill="currentColor">
        <path d="M12 17a1.5 1.5 0 1 0 0-3 1.5 1.5 0 0 0 0 3z"/>
        <path d="M17 8V6a5 5 0 0 0-10 0v2H5v14h14V8h-2zm-8-2a3 3 0 0 1 6 0v2H9V6z"/>
    </symbol>
    <symbol id="eye" viewBox="0 0 24 24" fill="currentColor">
        <path d="M12 4.5C7 4.5 2.73 8.11 1 12c1.73 3.89 6 7.5 11 7.5s9.27-3.61 11-7.5c-1.73-3.89-6-7.5-11-7.5zm0 13a5.5 5.5 0 1 1 0-11 5.5 5.5 0 0 1 0 11z"/>
        <path d="M12 9.5a2.5 2.5 0 1 0 0 5 2.5 2.5 0 0 0 0-5z"/>
    </symbol>
    <symbol id="eye-off" viewBox="0 0 24 24" fill="currentColor">
        <path d="M3 3l18 18M10.584 10.586A2 2 0 0 0 12 14a2 2 0 0 0 1.414-3.414M7.05 7.05A9.956 9.956 0 0 0 2 12c1.732 3.865 5.43 7 10 7a9.956 9.956 0 0 0 4.95-1.318M12 5c3.276 0 6.245 1.765 8 4.5a9.948 9.948 0 0 1-1.651 2.318"/>
    </symbol>
</svg>
